<?xml version="1.0"?>
<!DOCTYPE svg PUBLIC "-//W3C//DTD SVG 1.1//EN" 
    "http://www.w3.org/Graphics/SVG/1.1/DTD/svg11.dtd">
<svg xmlns="http://www.w3.org/2000/svg" version="1.1" height="200" width="200">
<path stroke="none" fill="#20be86" d="M94.5 1.3867513459482a10 10 0 0 1 10 0l77.468565782228 44.726497308104a10 10 0 0 1 5 8.6602540378444l0 89.452994616207a10 10 0 0 1 -5 8.6602540378444l-77.468565782228 44.726497308104a10 10 0 0 1 -10 0l-77.468565782228 -44.726497308104a10 10 0 0 1 -5 -8.6602540378444l1.424681902617e-13 -89.452994616207a10 10 0 0 1 5 -8.6602540378444"></path>
<text x="35" y="86.6" fill="white"  font-size="40" font-family="Arial" textLength="130" lengthAdjust="spacing">HSNU</text>
<text x="35" y="136.6" fill="white"  font-size="50" font-family="Arial" textLength="135" lengthAdjust="spacing">1481</text>
</svg>
